<?xml version="1.0" standalone="no"?>
<!DOCTYPE svg PUBLIC "-//W3C//DTD SVG 20010904//EN"
 "http://www.w3.org/TR/2001/REC-SVG-20010904/DTD/svg10.dtd">
<svg version="1.0" xmlns="http://www.w3.org/2000/svg"
 width="512.000000pt" height="512.000000pt" viewBox="0 0 512.000000 512.000000"
 preserveAspectRatio="xMidYMid meet">
<metadata>
Created by potrace 1.14, written by Peter Selinger 2001-2017
</metadata>
<g transform="translate(0.000000,512.000000) scale(0.100000,-0.100000)"
fill="#000000" stroke="none">
<path d="M0 2560 l0 -2110 2560 0 2560 0 0 230 0 230 -75 0 -75 0 0 -153 0
-154 -2410 0 -2410 0 0 1957 0 1957 2410 0 2410 0 0 -1578 0 -1577 75 0 75 0
0 1654 0 1654 -2560 0 -2560 0 0 -2110z"/>
<path d="M301 2565 l0 -1804 2257 2 2257 2 2 1803 2 1802 -1810 0 -1809 0 0
-75 c0 -65 2 -75 18 -76 9 0 790 0 1734 0 l1717 -1 0 -749 0 -749 -27 0 c-15
0 -118 -1 -229 -1 l-203 0 0 -75 0 -74 229 0 229 0 0 -80 0 -80 -206 0 -205 0
-224 -225 -224 -225 -209 0 -209 0 -174 -150 -175 -150 -427 -1 c-234 0 -429
1 -431 4 -3 3 -5 178 -5 390 l0 385 -91 133 -90 134 -114 5 c-174 8 -158 29
-158 -203 0 -108 -3 -197 -7 -197 -4 0 -13 17 -20 38 -6 20 -52 147 -102 282
l-91 245 0 462 c-1 406 -3 465 -17 480 -8 10 -71 70 -138 133 l-123 115 -63 5
c-34 3 -73 3 -87 0 l-24 -5 1 -165 1 -165 -130 -132 c-129 -132 -130 -133
-176 -133 -44 0 -48 3 -173 123 l-128 122 3 250 3 250 95 2 c52 0 118 2 146 2
l52 1 1 75 1 75 -224 0 -225 0 0 -1805z m1014 1211 l40 -36 1 -447 0 -448 36
-95 c36 -94 71 -189 212 -575 l73 -200 100 -3 100 -3 -1 296 c-1 289 -1 295
19 295 14 0 37 -26 77 -85 l56 -84 1 -532 1 -532 116 -115 115 -114 -3 -92 -3
-91 -676 -2 -675 -3 -1 133 c-1 72 -2 140 -2 150 -1 14 -12 17 -75 17 l-74 0
0 -127 c0 -71 -1 -138 -1 -150 -1 -22 -3 -22 -151 -22 l-149 -1 2 298 2 297
147 2 148 1 1 -66 c1 -37 1 -70 1 -73 -1 -4 32 -7 73 -7 41 0 75 3 76 6 0 4 2
122 3 262 l1 255 75 103 74 103 1 484 0 483 75 79 76 78 -1 332 0 332 35 -33
c19 -19 53 -50 75 -70z m-261 -396 l-2 -111 -66 -66 c-37 -36 -70 -73 -75 -82
-5 -9 -8 -232 -7 -496 l1 -480 -31 -45 c-16 -25 -51 -74 -76 -110 l-47 -66 1
-129 1 -130 -151 -3 -152 -3 1 922 0 922 37 -35 c20 -20 63 -61 96 -92 l59
-56 106 0 106 0 95 94 c52 52 97 90 100 85 3 -5 5 -58 4 -119z m3613 -1792
l-2 -673 -1127 -2 -1128 -2 0 127 -1 127 -114 114 -115 114 0 58 0 57 460 1
460 0 32 30 c18 16 96 83 173 150 l140 120 215 1 215 0 224 225 225 225 172 0
173 0 -2 -672z"/>
<path d="M607 2862 c-10 -15 -3 -142 7 -143 6 0 39 -2 74 -2 56 -2 62 0 63 18
1 23 1 104 0 123 -1 13 -136 18 -144 4z"/>
<path d="M900 4295 c0 -43 4 -75 10 -76 6 0 28 -1 50 -1 99 0 90 -7 90 77 l0
75 -75 0 -75 0 0 -75z"/>
<path d="M3463 3995 l1 -75 73 1 c40 1 73 4 74 7 0 4 2 37 2 75 l2 67 -77 0
-77 0 2 -75z"/>
<path d="M3887 3919 c-12 -3 -46 -30 -74 -58 l-53 -53 0 -181 0 -182 56 -62
56 -63 182 0 183 0 62 64 63 63 0 156 c0 86 -3 161 -7 166 -3 6 -32 10 -63 10
-31 -1 -63 -1 -69 0 -9 1 -13 22 -13 71 0 49 -4 70 -12 71 -82 4 -294 3 -311
-2z m173 -222 l0 -72 75 1 75 0 0 -60 c0 -91 -8 -96 -153 -96 -102 0 -122 3
-133 18 -18 23 -19 253 -2 270 7 7 39 12 75 12 l63 0 0 -73z"/>
<path d="M1650 3695 l0 -75 698 0 697 0 131 -163 131 -163 1 -197 1 -197 -128
-133 -129 -132 -263 0 -262 0 -98 129 -99 129 0 127 c0 126 0 127 28 151 15
14 54 54 87 90 l60 64 168 -1 c151 -2 170 -4 185 -21 94 -104 140 -161 142
-173 1 -8 2 -38 1 -66 l-1 -51 -147 1 -148 1 -2 70 c-1 39 -2 73 -2 78 -1 4
-34 7 -75 7 l-73 0 0 -153 1 -154 298 0 298 -1 0 173 c0 95 -3 175 -7 177 -5
2 -37 37 -73 78 -36 41 -80 91 -98 111 -18 20 -39 44 -45 53 -10 14 -44 17
-250 19 l-238 3 -117 -125 c-64 -68 -123 -130 -130 -137 -10 -10 -13 -58 -13
-193 l0 -180 138 -178 137 -178 325 0 c278 0 329 2 346 15 11 9 91 88 177 176
l157 159 0 255 0 255 -171 213 -170 212 -734 0 -734 0 0 -75z"/>
<path d="M1809 3313 c-1 -12 -1 -74 0 -110 l1 -33 75 0 75 0 -2 75 -1 75 -74
0 c-40 0 -73 -3 -74 -7z"/>
<path d="M4358 3158 c-2 -7 -3 -40 -3 -73 l0 -60 45 -5 c25 -3 59 -3 77 -2
l31 4 1 74 1 74 -74 0 c-50 0 -75 -4 -78 -12z"/>
<path d="M3460 2529 l-183 -189 -436 -2 -436 -3 0 -72 -1 -73 467 0 467 0 150
153 c82 83 165 169 185 190 l35 37 176 0 176 0 0 75 0 75 -209 -1 -208 0 -183
-190z"/>
<path d="M2554 1961 c-2 -2 -4 -37 -4 -77 l0 -72 73 2 72 2 0 74 0 75 -68 0
c-38 0 -70 -2 -73 -4z"/>
<path d="M4970 1135 l0 -75 75 0 75 0 0 75 0 75 -75 0 -75 0 0 -75z"/>
</g>
</svg>
